<svg width="17" height="15" viewBox="0 0 17 15" fill="none" xmlns="http://www.w3.org/2000/svg">
<path d="M15.6408 5.28193L10.9319 4.59758L8.82693 0.330127C8.76943 0.213287 8.67485 0.118702 8.55801 0.0612089C8.26498 -0.0834504 7.9089 0.037099 7.76238 0.330127L5.6574 4.59758L0.948558 5.28193C0.818736 5.30047 0.700041 5.36167 0.609165 5.45441C0.499301 5.56733 0.438762 5.71924 0.440848 5.87678C0.442935 6.03431 0.507477 6.18457 0.620293 6.29454L4.02721 9.61614L3.22231 14.3064C3.20343 14.4156 3.2155 14.5278 3.25716 14.6304C3.29881 14.733 3.36838 14.8218 3.45797 14.8869C3.54756 14.952 3.65359 14.9906 3.76404 14.9985C3.87448 15.0064 3.98493 14.9831 4.08284 14.9314L8.29466 12.717L12.5065 14.9314C12.6215 14.9926 12.755 15.013 12.883 14.9908C13.2057 14.9352 13.4226 14.6291 13.367 14.3064L12.5621 9.61614L15.969 6.29454C16.0617 6.20367 16.123 6.08497 16.1415 5.95515C16.1916 5.63059 15.9653 5.33015 15.6408 5.28193Z" fill="#FDE047"/>
</svg>
