<svg width="16" height="15" viewBox="0 0 16 15" fill="none" xmlns="http://www.w3.org/2000/svg">
<path d="M3.94853 9.24157L2.83125 14.0796C2.79665 14.2261 2.80704 14.3797 2.86105 14.5202C2.91506 14.6607 3.01019 14.7816 3.13402 14.8672C3.25784 14.9528 3.4046 14.9991 3.55512 15C3.70565 15.0009 3.85295 14.9564 3.97778 14.8722L8.06074 12.1503L12.1437 14.8722C12.2714 14.957 12.4221 15.0007 12.5753 14.9973C12.7286 14.994 12.8772 14.9438 13.0011 14.8534C13.125 14.7631 13.2182 14.637 13.2683 14.4921C13.3184 14.3472 13.3229 14.1904 13.2812 14.0429L11.9098 9.24382L15.3111 6.18291C15.42 6.08482 15.4978 5.95695 15.5349 5.81512C15.5719 5.67328 15.5666 5.5237 15.5195 5.38487C15.4724 5.24604 15.3857 5.12406 15.27 5.034C15.1543 4.94394 15.0148 4.88976 14.8687 4.87816L10.5938 4.53773L8.74386 0.442765C8.68487 0.310907 8.58899 0.198939 8.46777 0.120372C8.34656 0.041806 8.20519 0 8.06074 0C7.91629 0 7.77493 0.041806 7.65371 0.120372C7.5325 0.198939 7.43661 0.310907 7.37762 0.442765L5.52773 4.53773L1.2528 4.87741C1.10917 4.88879 0.971859 4.94131 0.857293 5.02868C0.742728 5.11605 0.655761 5.23458 0.606795 5.37009C0.55783 5.50559 0.54894 5.65234 0.581189 5.79276C0.613438 5.93319 0.685461 6.06135 0.788641 6.16191L3.94853 9.24157ZM6.08787 5.9977C6.22172 5.98715 6.35026 5.94079 6.46003 5.86348C6.56979 5.78617 6.65674 5.68075 6.71175 5.55828L8.06074 2.57311L9.40973 5.55828C9.46474 5.68075 9.55169 5.78617 9.66146 5.86348C9.77122 5.94079 9.89977 5.98715 10.0336 5.9977L13.012 6.2339L10.5593 8.44148C10.3463 8.63344 10.2616 8.92888 10.3396 9.20483L11.2791 12.4929L8.47766 10.6251C8.3547 10.5425 8.20996 10.4985 8.06187 10.4985C7.91378 10.4985 7.76903 10.5425 7.64607 10.6251L4.71863 12.5769L5.50598 9.16809C5.53485 9.04271 5.53098 8.91202 5.49473 8.78858C5.45849 8.66513 5.39109 8.55309 5.29902 8.46322L3.02096 6.24215L6.08787 5.9977Z" fill="#FDE047"/>
</svg>
