<svg width="16" height="15" viewBox="0 0 16 15" fill="none" xmlns="http://www.w3.org/2000/svg">
<path d="M2.83227 14.0813C2.80658 14.1913 2.80612 14.3057 2.83092 14.4159C2.85573 14.5261 2.90515 14.6293 2.9755 14.7177C3.04584 14.806 3.13527 14.8773 3.2371 14.9262C3.33892 14.9751 3.4505 15.0004 3.56345 15C3.71159 15 3.85641 14.9562 3.97966 14.874L8.06301 12.1518L12.1464 14.874C12.2741 14.9588 12.4247 15.0025 12.578 14.9991C12.7313 14.9958 12.8799 14.9455 13.0038 14.8552C13.1277 14.7649 13.221 14.6388 13.2711 14.4938C13.3212 14.3489 13.3257 14.1921 13.284 14.0446L11.9124 9.24506L15.314 6.18387C15.423 6.08577 15.5008 5.95788 15.5378 5.81603C15.5749 5.67419 15.5695 5.52459 15.5224 5.38575C15.4754 5.24691 15.3886 5.12491 15.2729 5.03485C15.1573 4.94478 15.0177 4.8906 14.8716 4.87899L10.5963 4.53853L8.74619 0.443182C8.68727 0.311279 8.59144 0.199247 8.47025 0.120607C8.34907 0.0419668 8.20772 7.94014e-05 8.06325 1.12773e-07C7.91879 -7.91759e-05 7.77739 0.041653 7.65612 0.12016C7.53485 0.198667 7.43889 0.310594 7.37983 0.442432L5.52976 4.53853L1.25443 4.87824C1.11079 4.88962 0.973461 4.94215 0.858885 5.02953C0.744309 5.11691 0.657334 5.23545 0.608363 5.37097C0.559393 5.50649 0.550503 5.65324 0.582755 5.79368C0.615007 5.93412 0.687036 6.06229 0.790226 6.16287L3.95041 9.24281L2.83227 14.0813ZM8.06301 2.57297L9.59436 5.96339L13.0148 6.23486L10.5618 8.44264L10.561 8.44414L10.2138 8.75611L10.342 9.20382V9.20607L11.2817 12.4945L8.06301 10.349V2.57297Z" fill="#FDE047"/>
</svg>
